<mxfile host="app.diagrams.net" modified="2024-05-14T01:55:31.236Z" agent="Mozilla/5.0 (Windows NT 10.0; Win64; x64) AppleWebKit/537.36 (KHTML, like Gecko) Chrome/124.0.0.0 Safari/537.36" etag="s82NV8iqBBmOoFFu28fz" version="24.4.0" type="device">
  <diagram name="EXERCISE-1" id="7WXvErT6jwQCl5LBhXy7">
    <mxGraphModel dx="978" dy="531" grid="1" gridSize="10" guides="1" tooltips="1" connect="1" arrows="1" fold="1" page="1" pageScale="1" pageWidth="850" pageHeight="1100" math="0" shadow="0">
      <root>
        <mxCell id="0" />
        <mxCell id="1" parent="0" />
        <mxCell id="-hOMn0kYKFU-R9jvK8EN-38" value="EXERCISE 7 P2" style="text;html=1;align=center;verticalAlign=middle;resizable=0;points=[];autosize=1;strokeColor=none;fillColor=none;" parent="1" vertex="1">
          <mxGeometry x="315" width="110" height="30" as="geometry" />
        </mxCell>
        <mxCell id="jAzLcmatW34AS9ptDqRP-906" style="edgeStyle=orthogonalEdgeStyle;rounded=0;orthogonalLoop=1;jettySize=auto;html=1;exitX=0;exitY=0.5;exitDx=0;exitDy=0;entryX=0;entryY=0.5;entryDx=0;entryDy=0;" edge="1" parent="1" source="jAzLcmatW34AS9ptDqRP-907">
          <mxGeometry relative="1" as="geometry">
            <mxPoint x="302.5" y="1310" as="targetPoint" />
            <Array as="points">
              <mxPoint x="-180" y="2250" />
              <mxPoint x="-180" y="1310" />
            </Array>
          </mxGeometry>
        </mxCell>
        <mxCell id="jAzLcmatW34AS9ptDqRP-936" value="" style="edgeStyle=orthogonalEdgeStyle;rounded=0;orthogonalLoop=1;jettySize=auto;html=1;" edge="1" parent="1" source="jAzLcmatW34AS9ptDqRP-937" target="jAzLcmatW34AS9ptDqRP-939">
          <mxGeometry relative="1" as="geometry" />
        </mxCell>
        <mxCell id="jAzLcmatW34AS9ptDqRP-937" value="INICIO" style="ellipse;whiteSpace=wrap;html=1;" vertex="1" parent="1">
          <mxGeometry x="330" y="30" width="80" height="80" as="geometry" />
        </mxCell>
        <mxCell id="jAzLcmatW34AS9ptDqRP-938" value="" style="edgeStyle=orthogonalEdgeStyle;rounded=0;orthogonalLoop=1;jettySize=auto;html=1;" edge="1" parent="1" source="jAzLcmatW34AS9ptDqRP-939" target="jAzLcmatW34AS9ptDqRP-941">
          <mxGeometry relative="1" as="geometry" />
        </mxCell>
        <mxCell id="jAzLcmatW34AS9ptDqRP-939" value="INPUT&lt;div&gt;n&lt;/div&gt;" style="shape=parallelogram;perimeter=parallelogramPerimeter;whiteSpace=wrap;html=1;fixedSize=1;" vertex="1" parent="1">
          <mxGeometry x="310" y="140" width="120" height="60" as="geometry" />
        </mxCell>
        <mxCell id="jAzLcmatW34AS9ptDqRP-940" value="" style="edgeStyle=orthogonalEdgeStyle;rounded=0;orthogonalLoop=1;jettySize=auto;html=1;" edge="1" parent="1" source="jAzLcmatW34AS9ptDqRP-941" target="jAzLcmatW34AS9ptDqRP-944">
          <mxGeometry relative="1" as="geometry" />
        </mxCell>
        <mxCell id="jAzLcmatW34AS9ptDqRP-941" value="suma = 0&lt;div&gt;i = 1&lt;/div&gt;" style="whiteSpace=wrap;html=1;" vertex="1" parent="1">
          <mxGeometry x="320" y="230" width="100" height="40" as="geometry" />
        </mxCell>
        <mxCell id="jAzLcmatW34AS9ptDqRP-942" value="" style="edgeStyle=orthogonalEdgeStyle;rounded=0;orthogonalLoop=1;jettySize=auto;html=1;" edge="1" parent="1" source="jAzLcmatW34AS9ptDqRP-944" target="jAzLcmatW34AS9ptDqRP-945">
          <mxGeometry relative="1" as="geometry" />
        </mxCell>
        <mxCell id="jAzLcmatW34AS9ptDqRP-943" value="" style="edgeStyle=orthogonalEdgeStyle;rounded=0;orthogonalLoop=1;jettySize=auto;html=1;" edge="1" parent="1" source="jAzLcmatW34AS9ptDqRP-944" target="jAzLcmatW34AS9ptDqRP-947">
          <mxGeometry relative="1" as="geometry" />
        </mxCell>
        <mxCell id="jAzLcmatW34AS9ptDqRP-944" value="n &amp;gt;= i" style="rhombus;whiteSpace=wrap;html=1;fillColor=#fff2cc;strokeColor=#d6b656;" vertex="1" parent="1">
          <mxGeometry x="330" y="310" width="80" height="80" as="geometry" />
        </mxCell>
        <mxCell id="jAzLcmatW34AS9ptDqRP-945" value="OUTPUT&lt;div&gt;suma&lt;/div&gt;" style="shape=parallelogram;perimeter=parallelogramPerimeter;whiteSpace=wrap;html=1;fixedSize=1;" vertex="1" parent="1">
          <mxGeometry x="470" y="320" width="120" height="60" as="geometry" />
        </mxCell>
        <mxCell id="jAzLcmatW34AS9ptDqRP-946" value="NO" style="text;html=1;align=center;verticalAlign=middle;resizable=0;points=[];autosize=1;strokeColor=none;fillColor=none;" vertex="1" parent="1">
          <mxGeometry x="400" y="318" width="40" height="30" as="geometry" />
        </mxCell>
        <mxCell id="jAzLcmatW34AS9ptDqRP-947" value="suma = suma + (pow( (-1), (i+1) )) / i" style="whiteSpace=wrap;html=1;" vertex="1" parent="1">
          <mxGeometry x="260" y="430" width="220" height="60" as="geometry" />
        </mxCell>
        <mxCell id="jAzLcmatW34AS9ptDqRP-948" value="" style="endArrow=none;html=1;rounded=0;exitX=0;exitY=0.5;exitDx=0;exitDy=0;" edge="1" parent="1" source="jAzLcmatW34AS9ptDqRP-944">
          <mxGeometry width="50" height="50" relative="1" as="geometry">
            <mxPoint x="210" y="510" as="sourcePoint" />
            <mxPoint x="260" y="460" as="targetPoint" />
            <Array as="points">
              <mxPoint x="210" y="350" />
              <mxPoint x="210" y="460" />
            </Array>
          </mxGeometry>
        </mxCell>
        <mxCell id="jAzLcmatW34AS9ptDqRP-949" value="++i" style="whiteSpace=wrap;html=1;" vertex="1" parent="1">
          <mxGeometry x="180" y="390" width="60" height="30" as="geometry" />
        </mxCell>
        <mxCell id="jAzLcmatW34AS9ptDqRP-950" value="SI" style="text;html=1;align=center;verticalAlign=middle;resizable=0;points=[];autosize=1;strokeColor=none;fillColor=none;" vertex="1" parent="1">
          <mxGeometry x="385" y="388" width="30" height="30" as="geometry" />
        </mxCell>
      </root>
    </mxGraphModel>
  </diagram>
</mxfile>
